#!OML:ASF G:\JayActor3\Patient Classification 1\Patient 1\Session 6\male.ASF
:FULLY-SPECIFIED
:DEGREES
2038
root 9.86074 15.5267 -17.6282 -16.9259 -156.741 3.69803
lowerback -10.5377 3.35055 2.16825
upperback -0.534874 4.21904 -1.52384
thorax 5.61966 2.12279 -2.16702
lowerneck -12.7033 2.83226 2.02592
upperneck -9.93671 2.57918 -1.44554
head -0.96816 0.864368 -0.699875
rclavicle 6.08281e-014 2.22639e-014
rhumerus 34.8437 20.1231 -11.0043
rradius 140.302
rwrist -69.1181
rhand -45.7709 -20.9878
rfingers 7.12502
rthumb -18.5254 -50.1257
lclavicle 6.08281e-014 2.22639e-014
lhumerus -40.034 16.0448 35.3377
lradius 28.357
lwrist 41.0564
lhand -22.6606 7.88373
lfingers 7.12502
lthumb 3.77081 37.8301
rfemur 0.498995 -0.542104 17.1937
rtibia 44.365
rfoot -33.1239 -25.2744
rtoes 2.61904
lfemur 16.3611 0.198143 -4.82977
ltibia 25.8298
lfoot -30.8658 32.0406
ltoes 10.014
2039
root 9.83406 15.5319 -17.6023 -17.0069 -156.735 3.86381
lowerback -10.534 3.32525 2.27224
upperback -0.51446 4.17442 -1.52111
thorax 5.64384 2.10455 -2.22902
lowerneck -12.7055 2.8606 2.05879
upperneck -9.90056 2.61391 -1.50118
head -0.954506 0.881925 -0.72143
rclavicle 6.16232e-014 -7.95139e-015
rhumerus 34.8327 20.1329 -10.8922
rradius 140.466
rwrist -69.6267
rhand -45.7462 -21.1931
rfingers 7.12502
rthumb -18.5016 -50.3332
lclavicle 6.16232e-014 -7.95139e-015
lhumerus -39.1339 15.7509 36.0341
lradius 29.3063
lwrist 41.6308
lhand -22.5788 7.87031
lfingers 7.12502
lthumb 3.84988 37.8153
rfemur 0.578557 -0.470327 17.2616
rtibia 44.1696
rfoot -32.9984 -25.3565
rtoes 2.81703
lfemur 16.3382 -0.0813883 -4.97124
ltibia 25.8742
lfoot -31.3057 32.158
ltoes 10.3554
2040
root 9.80916 15.5374 -17.5751 -17.0542 -156.729 4.00127
lowerback -10.5228 3.29912 2.34773
upperback -0.496787 4.13259 -1.53157
thorax 5.65992 2.08691 -2.28895
lowerneck -12.7103 2.89551 2.09951
upperneck -9.85975 2.65754 -1.54062
head -0.938943 0.903774 -0.738893
rclavicle -3.1408e-014 4.13472e-014
rhumerus 34.8105 20.1428 -10.8013
rradius 140.622
rwrist -70.1447
rhand -45.7136 -21.405
rfingers 7.12502
rthumb -18.4702 -50.5481
lclavicle -3.1408e-014 4.13472e-014
lhumerus -38.2733 15.4323 36.7355
lradius 30.286
lwrist 42.1527
lhand -22.4944 7.8729
lfingers 7.12502
lthumb 3.93135 37.8164
rfemur 0.610111 -0.40694 17.3004
rtibia 43.9978
rfoot -32.8547 -25.446
rtoes 3.0018
lfemur 16.2796 -0.307612 -5.10742
ltibia 25.9278
lfoot -31.6985 32.2263
ltoes 10.6782
2041
root 9.78704 15.5439 -17.5464 -17.0508 -156.736 4.12309
lowerback -10.516 3.27445 2.40228
upperback -0.491278 4.09483 -1.55058
thorax 5.66496 2.0703 -2.34565
lowerneck -12.7058 2.93134 2.13745
upperneck -9.8234 2.70386 -1.56159
head -0.926478 0.927119 -0.750154
rclavicle -7.95139e-014 -7.95139e-015
rhumerus 34.7818 20.1642 -10.7303
rradius 140.763
rwrist -70.6587
rhand -45.6777 -21.6034
rfingers 7.12502
rthumb -18.4357 -50.7498
lclavicle -7.95139e-014 -7.95139e-015
lhumerus -37.461 15.0751 37.4349
lradius 31.2995
lwrist 42.6247
lhand -22.3705 7.89323
lfingers 7.12502
lthumb 4.05098 37.8345
rfemur 0.561504 -0.330113 17.3384
rtibia 43.8533
rfoot -32.7098 -25.5496
rtoes 3.18656
lfemur 16.1647 -0.483651 -5.22599
ltibia 25.9818
lfoot -32.0635 32.2494
ltoes 11.0071
2042
root 9.7683 15.5517 -17.5172 -16.9914 -156.764 4.21503
lowerback -10.5191 3.25342 2.42091
upperback -0.494131 4.06589 -1.58191
thorax 5.66557 2.05678 -2.3935
lowerneck -12.6988 2.96659 2.1804
upperneck -9.78933 2.74906 -1.57412
head -0.915173 0.949671 -0.759675
rclavicle -1.55052e-014 0
rhumerus 34.7509 20.2114 -10.6616
rradius 140.884
rwrist -71.1298
rhand -45.6535 -21.7357
rfingers 7.12502
rthumb -18.4124 -50.8843
lclavicle -1.55052e-014 0
lhumerus -36.6957 14.6822 38.121
lradius 32.345
lwrist 43.0425
lhand -22.1863 7.91871
lfingers 7.12502
lthumb 4.22891 37.8565
rfemur 0.432758 -0.223601 17.3711
rtibia 43.7359
rfoot -32.5577 -25.6796
rtoes 3.34109
lfemur 16.0034 -0.607068 -5.33916
ltibia 26.0263
lfoot -32.4102 32.2328
ltoes 11.3543
2043
root 9.75341 15.5607 -17.488 -16.8816 -156.814 4.27597
lowerback -10.5267 3.22072 2.38633
upperback -0.50983 4.02636 -1.6029
thorax 5.64984 2.03591 -2.40259
lowerneck -12.6579 3.00464 2.17378
upperneck -9.76642 2.806 -1.57067
head -0.913453 0.980074 -0.756022
rclavicle -3.02153e-014 -1.74931e-014
rhumerus 34.7749 20.297 -10.5649
rradius 140.986
rwrist -71.5521
rhand -45.6279 -21.8534
rfingers 7.12502
rthumb -18.3878 -51.0043
lclavicle -3.02153e-014 -1.74931e-014
lhumerus -36.0341 14.2797 38.7868
lradius 33.4152
lwrist 43.3976
lhand -21.9319 7.93172
lfingers 7.12502
lthumb 4.47456 37.8645
rfemur 0.233259 -0.0785059 17.4026
rtibia 43.6447
rfoot -32.4206 -25.8318
rtoes 3.46354
lfemur 15.8062 -0.683587 -5.44885
ltibia 26.0518
lfoot -32.7302 32.1927
ltoes 11.7059
2044
root 9.74218 15.5706 -17.4599 -16.737 -156.88 4.29325
lowerback -10.5292 3.1855 2.28774
upperback -0.532274 3.99045 -1.62016
thorax 5.61963 2.0147 -2.37177
lowerneck -12.5749 3.03374 2.11417
upperneck -9.75738 2.86004 -1.54931
head -0.923806 1.01133 -0.738624
rclavicle -5.92378e-014 -2.54444e-014
rhumerus 34.8287 20.4304 -10.4333
rradius 141.065
rwrist -71.9006
rhand -45.6083 -21.9417
rfingers 7.12502
rthumb -18.3689 -51.0944
lclavicle -5.92378e-014 -2.54444e-014
lhumerus -35.4454 13.849 39.4463
lradius 34.4981
lwrist 43.6961
lhand -21.6126 7.92927
lfingers 7.12502
lthumb 4.78281 37.8553
rfemur -0.00844137 0.101294 17.4166
rtibia 43.5777
rfoot -32.2885 -26.0176
rtoes 3.5299
lfemur 15.6036 -0.715744 -5.56843
ltibia 26.0477
lfoot -33.0182 32.1328
ltoes 12.0488
